<?xml version="1.0" encoding="UTF-8"?>
<svg width="20px" height="20px" viewBox="0 0 20 20" version="1.1" xmlns="http://www.w3.org/2000/svg" xmlns:xlink="http://www.w3.org/1999/xlink">
    <title>Shape@1x</title>
    <defs>
        <path d="M30.41,20.58 L21.41,11.58 C21.05,11.22 20.55,11 20,11 L13,11 C11.9,11 11,11.9 11,13 L11,20 C11,20.55 11.22,21.05 11.59,21.42 L20.59,30.42 C20.95,30.78 21.45,31 22,31 C22.55,31 23.05,30.78 23.41,30.41 L30.41,23.41 C30.78,23.05 31,22.55 31,22 C31,21.45 30.77,20.94 30.41,20.58 Z M14.5,16 C13.67,16 13,15.33 13,14.5 C13,13.67 13.67,13 14.5,13 C15.33,13 16,13.67 16,14.5 C16,15.33 15.33,16 14.5,16 Z" id="path-1"></path>
    </defs>
    <g id="Desktop" stroke="none" stroke-width="1" fill="none" fill-rule="evenodd">
        <g id="Desk---Hero---Default" transform="translate(-269.000000, -443.000000)">
            <g id="Tag" transform="translate(258.000000, 432.000000)">
                <mask id="mask-2" fill="currentColor">
                    <use xlink:href="#path-1"></use>
                </mask>
                <use id="Shape" fill="#676564" fill-rule="nonzero" xlink:href="#path-1"></use>
            </g>
        </g>
    </g>
</svg>